<svg width="109" height="62" viewBox="0 0 109 62" fill="none" xmlns="http://www.w3.org/2000/svg">
<g id="icon">
<g id="Group 5315">
<path id="Vector 5" d="M23.487 1.04297L33.0798 1.04297L10.2197 60.9499H1.43373L23.487 1.04297Z" stroke="#33CE34" stroke-width="2" stroke-linecap="round"/>
<path id="Vector 3" d="M43.7795 1.2797L79.8514 14.2323L62.9389 60.1377L23.1384 59.0817L43.7795 1.2797Z" stroke="#33CE34" stroke-width="2" stroke-linecap="round"/>
<path id="Vector 4" d="M92.899 7.62798L75.0889 1.25648L107.567 2.15552L85.5198 60.3648H76.0304L94.107 10.189C94.4819 9.14816 93.9407 8.00063 92.899 7.62798Z" stroke="#33CE34" stroke-width="2" stroke-linecap="round"/>
</g>
<path id="Star 6" d="M52 23.2361L54.1921 29.9828C54.4599 30.8068 55.2278 31.3647 56.0943 31.3647H63.1882L57.4491 35.5344C56.7481 36.0437 56.4548 36.9465 56.7225 37.7705L58.9147 44.5172L53.1756 40.3475C52.4746 39.8382 51.5254 39.8382 50.8244 40.3475L45.0853 44.5172L47.2775 37.7705C47.5452 36.9465 47.2519 36.0437 46.5509 35.5344L40.8118 31.3647H47.9057C48.7722 31.3647 49.5401 30.8068 49.8079 29.9828L52 23.2361Z" stroke="#33CE34" stroke-width="2"/>
</g>
</svg>
