<svg width="122" height="62" viewBox="0 0 122 62" fill="none" xmlns="http://www.w3.org/2000/svg">
<g clip-path="url(#clip0_28_473)">
<g clip-path="url(#clip1_28_473)">
<path d="M7.99891 45.8199C9.02214 45.8199 9.85466 44.9874 9.85466 43.9641C9.85466 42.9409 9.02214 42.1084 7.99891 42.1084C6.97569 42.1084 6.14317 42.9409 6.14317 43.9641C6.14317 44.9874 6.97569 45.8199 7.99891 45.8199Z" fill="#33CE34"/>
<path d="M32.5716 45.8199C33.5948 45.8199 34.4273 44.9874 34.4273 43.9641C34.4273 42.9409 33.5948 42.1084 32.5716 42.1084C31.5484 42.1084 30.7158 42.9409 30.7158 43.9641C30.7158 44.9874 31.5484 45.8199 32.5716 45.8199Z" fill="#33CE34"/>
<path d="M38.7147 45.8199C39.738 45.8199 40.5705 44.9874 40.5705 43.9641C40.5705 42.9409 39.738 42.1084 38.7147 42.1084C37.6915 42.1084 36.859 42.9409 36.859 43.9641C36.859 44.9874 37.6915 45.8199 38.7147 45.8199Z" fill="#33CE34"/>
<path d="M44.8579 45.8199C45.8811 45.8199 46.7137 44.9874 46.7137 43.9641C46.7137 42.9409 45.8811 42.1084 44.8579 42.1084C43.8347 42.1084 43.0022 42.9409 43.0022 43.9641C43.0022 44.9874 43.8347 45.8199 44.8579 45.8199Z" fill="#33CE34"/>
<path d="M51.0011 45.8199C52.0243 45.8199 52.8568 44.9874 52.8568 43.9641C52.8568 42.9409 52.0243 42.1084 51.0011 42.1084C49.9779 42.1084 49.1453 42.9409 49.1453 43.9641C49.1453 44.9874 49.9779 45.8199 51.0011 45.8199Z" fill="#33CE34"/>
<path d="M26.4284 45.8199C27.4516 45.8199 28.2842 44.9874 28.2842 43.9641C28.2842 42.9409 27.4516 42.1084 26.4284 42.1084C25.4052 42.1084 24.5727 42.9409 24.5727 43.9641C24.5727 44.9874 25.4052 45.8199 26.4284 45.8199Z" fill="#33CE34"/>
<path d="M20.2852 45.8199C21.3085 45.8199 22.141 44.9874 22.141 43.9641C22.141 42.9409 21.3085 42.1084 20.2852 42.1084C19.262 42.1084 18.4295 42.9409 18.4295 43.9641C18.4295 44.9874 19.262 45.8199 20.2852 45.8199Z" fill="#33CE34"/>
<path d="M14.1421 45.8199C15.1653 45.8199 15.9978 44.9874 15.9978 43.9641C15.9978 42.9409 15.1653 42.1084 14.1421 42.1084C13.1189 42.1084 12.2863 42.9409 12.2863 43.9641C12.2863 44.9874 13.1189 45.8199 14.1421 45.8199Z" fill="#33CE34"/>
<path d="M58.0401 44.0281H57.0786C57.0789 44.0068 57.0803 43.9857 57.0803 43.9642C57.0803 41.3066 55.3654 39.0435 52.9848 38.2191V30.654C52.9848 30.1239 52.5552 29.6941 52.0249 29.6941H43.8341C43.3038 29.6941 42.8742 30.1239 42.8742 30.654V37.885H40.6985V30.654C40.6985 30.1239 40.2688 29.6941 39.7386 29.6941H31.5477C31.0175 29.6941 30.5879 30.1239 30.5879 30.654V37.885H28.4121V30.654C28.4121 30.1239 27.9825 29.6941 27.4523 29.6941H19.2614C18.7312 29.6941 18.3015 30.1239 18.3015 30.654V37.885H16.1258V30.654C16.1258 30.1239 15.6962 29.6941 15.1659 29.6941H6.97505C6.44482 29.6941 6.01518 30.1239 6.01518 30.654V38.2191C3.63458 39.0435 1.91974 41.3067 1.91974 43.9642C1.91974 43.9857 1.92115 44.0068 1.9214 44.0281H0.95987C0.429638 44.0281 0 44.4579 0 44.988V53.1789C0 53.6874 0.395722 54.1024 0.895879 54.1356V60.3459C0.895879 60.876 1.32552 61.3058 1.85575 61.3058C2.38598 61.3058 2.81562 60.876 2.81562 60.3459V54.1388H19.3254V60.3459C19.3254 60.876 19.755 61.3058 20.2852 61.3058C20.8155 61.3058 21.2451 60.876 21.2451 60.3459V54.1388H37.7549V60.3459C37.7549 60.876 38.1845 61.3058 38.7148 61.3058C39.245 61.3058 39.6746 60.876 39.6746 60.3459V54.1388H56.1844V60.3459C56.1844 60.876 56.614 61.3058 57.1443 61.3058C57.6745 61.3058 58.1041 60.876 58.1041 60.3459V54.1356C58.6043 54.1024 59 53.6875 59 53.1789V44.988C59 44.4579 58.5704 44.0281 58.0401 44.0281ZM44.7939 31.6138H46.9696V32.7017C46.9696 33.2318 47.3993 33.6616 47.9295 33.6616C48.4597 33.6616 48.8894 33.2318 48.8894 32.7017V31.6138H51.0651V37.885H51.0011H44.7939V31.6138ZM32.5076 31.6138H34.6833V32.7017C34.6833 33.2318 35.1129 33.6616 35.6432 33.6616C36.1734 33.6616 36.603 33.2318 36.603 32.7017V31.6138H38.7787V37.885H32.5076V31.6138ZM20.2213 31.6138H22.397V32.7017C22.397 33.2318 22.8266 33.6616 23.3568 33.6616C23.8871 33.6616 24.3167 33.2318 24.3167 32.7017V31.6138H26.4924V37.885H20.2213V31.6138ZM7.93492 37.885V31.6138H10.1106V32.7017C10.1106 33.2318 10.5403 33.6616 11.0705 33.6616C11.6007 33.6616 12.0304 33.2318 12.0304 32.7017V31.6138H14.2061V37.885H7.99892H7.93492ZM7.99892 39.8047H51.0011C53.2947 39.8047 55.1605 41.6706 55.1605 43.9642C55.1605 46.2577 53.2947 48.1236 51.0011 48.1236H7.99892C5.70534 48.1236 3.83948 46.2577 3.83948 43.9642C3.83948 41.6706 5.70534 39.8047 7.99892 39.8047ZM1.91974 45.9479H2.2539C3.07837 48.3285 5.34148 50.0433 7.99892 50.0433H51.0011C53.6586 50.0433 55.9218 48.3285 56.7461 45.9479H57.0803V52.219H1.91974V45.9479Z" fill="#33CE34"/>
</g>
<path d="M71.7919 15.1759C75.3849 15.1759 78.2612 12.206 78.2612 8.58795C78.2612 4.96987 75.3849 2 71.7919 2C68.1988 2 65.3226 4.96987 65.3226 8.58795C65.3226 12.206 68.1988 15.1759 71.7919 15.1759Z" stroke="#33CE34" stroke-width="2"/>
<mask id="path-11-outside-1_28_473" maskUnits="userSpaceOnUse" x="58" y="13.4844" width="28" height="48" fill="black">
<rect fill="white" x="58" y="13.4844" width="28" height="48"/>
<path d="M83.6224 33.1281C82.3531 24.2814 80.4299 20.492 75.7101 17.5353C75.6187 17.4785 75.5227 17.4371 75.4271 17.3949C74.8176 16.9803 74.134 16.6749 73.4363 16.4998L72.073 17.9009L70.7525 16.4844C70.7481 16.4848 70.7434 16.4857 70.7391 16.4875C70.0728 16.6498 69.4194 16.9332 68.8293 17.3174C68.8267 17.3179 68.8233 17.3187 68.8233 17.3187C67.9355 17.7416 60.0219 22.8948 61.1009 27.4244C61.6957 29.9253 64.2929 30.6496 66.475 30.8323V33.6918C66.475 34.2753 66.5865 34.8192 66.7816 35.3196C66.7666 35.4331 66.7558 35.5475 66.7558 35.6633L66.7571 56.4366C66.7571 57.8522 67.8808 58.9995 69.2665 58.9995C70.6525 58.9995 71.775 57.8514 71.775 56.4352V38.6082C71.8736 38.6135 71.9735 38.6205 72.0726 38.6205C72.0924 38.6205 72.1122 38.6188 72.1316 38.6179L72.1308 56.4344C72.1308 57.8509 73.2541 58.9986 74.6401 58.9986C76.0266 58.9986 77.1495 57.8509 77.1495 56.4344L77.15 35.79C77.4786 35.1678 77.6698 34.4623 77.6698 33.6905V26.2191C78.3495 27.952 78.9293 30.3323 79.4198 33.7569C79.5749 34.8364 80.4816 35.6127 81.5188 35.6127C81.6208 35.6127 81.7246 35.6048 81.8289 35.5885C82.9897 35.416 83.7925 34.3132 83.6224 33.1281ZM66.4745 26.4646C65.8931 26.3999 65.5321 26.3009 65.3215 26.2235C65.4938 25.7913 65.9245 25.2166 66.4745 24.6097V26.4646ZM78.2517 23.022L74.1969 32.0182C74.0078 32.4403 73.5797 32.7135 73.1081 32.7135C72.9207 32.7135 72.7402 32.6722 72.5688 32.5916L68.896 30.8639C68.974 30.8617 69.0494 30.8582 69.1187 30.8547C69.4478 30.8411 69.7528 30.7442 70.025 30.5946C70.0349 30.739 70.1141 30.8741 70.2511 30.9387L72.5981 32.0429C72.7389 32.1084 72.8893 32.1432 73.0396 32.1432C73.1451 32.1432 73.2498 32.126 73.3527 32.0926C73.6111 32.0085 73.8136 31.8264 73.9247 31.5804L77.6651 23.2807C77.7754 23.0352 77.7792 22.7593 77.6741 22.5031C77.5746 22.2598 77.3868 22.0635 77.1461 21.9504L71.7896 19.4302C71.2805 19.193 70.6861 19.3998 70.4639 19.894L67.74 25.9387C67.6474 26.1451 67.7357 26.3876 67.9368 26.4818C68.1375 26.5768 68.3757 26.4866 68.4675 26.2815L71.1914 20.2359C71.2288 20.1532 71.3499 20.1242 71.4545 20.1739L76.8105 22.6933C76.8683 22.7205 76.9126 22.7659 76.935 22.8196C76.9462 22.849 76.9574 22.8926 76.9372 22.9375L73.1968 31.238C73.1766 31.2824 73.1361 31.3036 73.1068 31.3132C73.0521 31.3322 72.9905 31.3264 72.9332 31.2996L70.5866 30.195C70.5771 30.1911 70.5664 30.1915 70.5565 30.1876C70.9437 29.7757 71.1759 29.2115 71.1504 28.5958C71.1013 27.3989 70.1012 26.4637 68.9395 26.5196C68.0975 26.5561 67.432 26.5434 66.904 26.5047L70.1839 19.2269C70.3743 18.8044 70.802 18.5316 71.2736 18.5316C71.4601 18.5316 71.6415 18.572 71.8138 18.653L71.9701 18.7269L72.0601 18.1078H72.086L72.1924 18.8308L77.6186 21.3836C78.2423 21.678 78.5261 22.4116 78.2517 23.022Z"/>
</mask>
<path d="M83.6224 33.1281L81.6427 33.4121L81.6427 33.4123L83.6224 33.1281ZM75.7101 17.5353L76.7718 15.8404L76.766 15.8367L75.7101 17.5353ZM75.4271 17.3949L74.3023 19.0486L74.4526 19.1508L74.6188 19.2243L75.4271 17.3949ZM73.4363 16.4998L73.9232 14.56L72.806 14.2795L72.0028 15.1051L73.4363 16.4998ZM72.073 17.9009L70.6101 19.2647L72.0421 20.8008L73.5065 19.2956L72.073 17.9009ZM70.7525 16.4844L72.2154 15.1206L71.5377 14.3937L70.5492 14.4947L70.7525 16.4844ZM70.7391 16.4875L71.2126 18.4306L71.3576 18.3953L71.4957 18.3388L70.7391 16.4875ZM68.8293 17.3174L69.165 19.289L69.5734 19.2195L69.9205 18.9935L68.8293 17.3174ZM68.8233 17.3187L68.3282 15.381L68.1392 15.4293L67.9631 15.5132L68.8233 17.3187ZM61.1009 27.4244L63.0466 26.9616L63.0464 26.961L61.1009 27.4244ZM66.475 30.8323H68.475V28.9927L66.6418 28.8392L66.475 30.8323ZM66.7816 35.3196L68.7642 35.5828L68.832 35.0726L68.645 34.593L66.7816 35.3196ZM66.7558 35.6633H64.7558V35.6634L66.7558 35.6633ZM66.7571 56.4366H68.7571V56.4364L66.7571 56.4366ZM71.775 38.6082L71.8819 36.6111L69.775 36.4983V38.6082H71.775ZM72.1316 38.6179L74.1316 38.618L74.1317 36.525L72.0409 36.6199L72.1316 38.6179ZM72.1308 56.4344L70.1308 56.4343V56.4344H72.1308ZM77.1495 56.4344L75.1495 56.4343V56.4344H77.1495ZM77.15 35.79L75.3815 34.856L75.15 35.2943L75.15 35.79L77.15 35.79ZM77.6698 26.2191L79.5317 25.4888L75.6698 26.2191H77.6698ZM79.4198 33.7569L77.4401 34.0405L77.4402 34.0413L79.4198 33.7569ZM81.8289 35.5885L81.5349 33.6102L81.5275 33.6113L81.5202 33.6124L81.8289 35.5885ZM66.4745 26.4646L66.2534 28.4523L68.4745 28.6995V26.4646H66.4745ZM65.3215 26.2235L63.4637 25.4828L62.7028 27.3914L64.6312 28.1006L65.3215 26.2235ZM66.4745 24.6097H68.4745V19.425L64.9926 23.2666L66.4745 24.6097ZM78.2517 23.022L80.0751 23.8438L80.0759 23.842L78.2517 23.022ZM74.1969 32.0182L72.3736 31.1964L72.3718 31.2005L74.1969 32.0182ZM72.5688 32.5916L71.7175 34.4014L71.7184 34.4018L72.5688 32.5916ZM68.896 30.8639L68.8396 28.8647L68.0447 32.6737L68.896 30.8639ZM69.1187 30.8547L69.0359 28.8564L69.0266 28.8568L69.0173 28.8573L69.1187 30.8547ZM70.025 30.5946L72.0203 30.4577L71.8059 27.3336L69.0616 28.8419L70.025 30.5946ZM70.2511 30.9387L69.397 32.7472L69.3997 32.7485L70.2511 30.9387ZM72.5981 32.0429L71.7467 33.8526L71.754 33.856L72.5981 32.0429ZM73.3527 32.0926L73.9707 33.9947L73.9713 33.9945L73.3527 32.0926ZM73.9247 31.5804L75.7474 32.4037L75.7481 32.4021L73.9247 31.5804ZM77.6651 23.2807L79.4885 24.1025L79.4896 24.1L77.6651 23.2807ZM77.6741 22.5031L75.8229 23.26L75.8239 23.2624L77.6741 22.5031ZM77.1461 21.9504L76.2946 23.7601L76.2958 23.7607L77.1461 21.9504ZM71.7896 19.4302L72.6411 17.6205L72.6343 17.6173L71.7896 19.4302ZM70.4639 19.894L72.2873 20.7157L72.2879 20.7143L70.4639 19.894ZM67.74 25.9387L65.9166 25.1171L65.9153 25.12L67.74 25.9387ZM67.9368 26.4818L68.7929 24.6742L68.7849 24.6705L67.9368 26.4818ZM68.4675 26.2815L66.644 25.46L66.6418 25.4648L68.4675 26.2815ZM71.1914 20.2359L69.3695 19.4107L69.3679 19.4144L71.1914 20.2359ZM71.4545 20.1739L70.5962 21.9804L70.6032 21.9837L71.4545 20.1739ZM76.8105 22.6933L77.6653 20.8851L77.6618 20.8835L76.8105 22.6933ZM76.935 22.8196L78.8047 22.1094L78.7933 22.0793L78.7808 22.0495L76.935 22.8196ZM76.9372 22.9375L75.114 22.1152L75.1138 22.1158L76.9372 22.9375ZM73.1968 31.238L75.0169 32.067L75.0202 32.0597L73.1968 31.238ZM73.1068 31.3132L72.4791 29.4143L72.466 29.4186L72.4529 29.4231L73.1068 31.3132ZM72.9332 31.2996L72.0814 33.1092L72.0846 33.1106L72.9332 31.2996ZM70.5866 30.195L71.4384 28.3855L71.3985 28.3667L71.3579 28.3497L70.5866 30.195ZM70.5565 30.1876L69.0993 28.8177L67.0896 30.9554L69.814 32.0446L70.5565 30.1876ZM71.1504 28.5958L69.1521 28.6778L69.1521 28.6783L71.1504 28.5958ZM68.9395 26.5196L69.0262 28.5178L69.0357 28.5173L68.9395 26.5196ZM66.904 26.5047L65.0806 25.6829L63.9056 28.2901L66.7577 28.4993L66.904 26.5047ZM70.1839 19.2269L72.0073 20.0486L72.0073 20.0486L70.1839 19.2269ZM71.8138 18.653L72.6687 16.845L72.6644 16.843L71.8138 18.653ZM71.9701 18.7269L71.1152 20.535L73.5602 21.6911L73.9493 19.0147L71.9701 18.7269ZM72.0601 18.1078V16.1078H70.3299L70.0809 17.82L72.0601 18.1078ZM72.086 18.1078L74.0647 17.8166L73.8132 16.1078H72.086V18.1078ZM72.1924 18.8308L70.2137 19.122L70.3699 20.1837L71.341 20.6405L72.1924 18.8308ZM77.6186 21.3836L78.4723 19.575L78.47 19.5739L77.6186 21.3836ZM85.6021 32.844C84.958 28.3549 84.123 24.9361 82.7437 22.2179C81.3264 19.425 79.3925 17.4821 76.7718 15.8404L74.6483 19.2301C76.7475 20.5452 78.1351 21.9754 79.1767 24.028C80.2562 26.1554 81.0174 29.0546 81.6427 33.4121L85.6021 32.844ZM76.766 15.8367C76.5314 15.6909 76.2946 15.5917 76.2353 15.5655L74.6188 19.2243C74.6254 19.2272 74.6319 19.2301 74.6377 19.2326C74.6437 19.2353 74.6491 19.2376 74.6543 19.2399C74.6648 19.2446 74.6732 19.2483 74.6805 19.2516C74.6955 19.2583 74.7026 19.2616 74.7054 19.263C74.7114 19.2659 74.6895 19.2557 74.6541 19.2338L76.766 15.8367ZM76.5519 15.7411C75.7489 15.195 74.8496 14.7925 73.9232 14.56L72.9494 18.4396C73.4185 18.5574 73.8862 18.7656 74.3023 19.0486L76.5519 15.7411ZM72.0028 15.1051L70.6396 16.5063L73.5065 19.2956L74.8698 17.8945L72.0028 15.1051ZM73.5359 16.5372L72.2154 15.1206L69.2895 17.8482L70.6101 19.2647L73.5359 16.5372ZM70.5492 14.4947C70.4414 14.5057 70.2294 14.5352 69.9825 14.6361L71.4957 18.3388C71.2574 18.4362 71.0549 18.4639 70.9557 18.474L70.5492 14.4947ZM70.2656 14.5443C69.3753 14.7613 68.5136 15.1364 67.7381 15.6413L69.9205 18.9935C70.3251 18.7301 70.7703 18.5384 71.2126 18.4306L70.2656 14.5443ZM68.4936 15.3458C68.4332 15.3561 68.3861 15.367 68.3729 15.3701C68.3622 15.3726 68.353 15.3748 68.3461 15.3765C68.3425 15.3774 68.3392 15.3782 68.3363 15.3789C68.3348 15.3793 68.3334 15.3797 68.332 15.38C68.3314 15.3802 68.3307 15.3803 68.3301 15.3805C68.3298 15.3806 68.3294 15.3807 68.3291 15.3807C68.329 15.3808 68.3288 15.3808 68.3287 15.3809C68.3286 15.3809 68.3285 15.3809 68.3284 15.3809C68.3284 15.3809 68.3283 15.3809 68.3283 15.3809C68.3283 15.381 68.3282 15.381 68.8233 17.3187C69.3183 19.2565 69.3182 19.2565 69.3182 19.2565C69.3182 19.2565 69.3181 19.2566 69.3181 19.2566C69.318 19.2566 69.3179 19.2566 69.3178 19.2566C69.3177 19.2567 69.3175 19.2567 69.3174 19.2567C69.3171 19.2568 69.3168 19.2569 69.3165 19.257C69.3158 19.2571 69.3152 19.2573 69.3146 19.2575C69.3133 19.2578 69.3119 19.2581 69.3106 19.2585C69.3078 19.2592 69.3048 19.2599 69.3016 19.2607C69.2954 19.2622 69.2873 19.2642 69.2777 19.2664C69.2669 19.2689 69.2228 19.2792 69.165 19.289L68.4936 15.3458ZM67.9631 15.5132C67.2833 15.837 64.9064 17.3717 62.8277 19.4002C61.7735 20.429 60.7022 21.6735 59.9648 23.0489C59.2292 24.4209 58.7313 26.1078 59.1553 27.8878L63.0464 26.961C62.9309 26.4761 63.0176 25.8203 63.4901 24.9389C63.9608 24.0609 64.7211 23.1415 65.6214 22.2629C66.5103 21.3955 67.4681 20.633 68.2608 20.0609C68.6552 19.7763 69.0005 19.5447 69.2653 19.3764C69.5561 19.1915 69.6899 19.1212 69.6834 19.1243L67.9631 15.5132ZM59.1551 27.8872C59.6158 29.824 60.8807 31.0519 62.2723 31.7733C63.6052 32.4643 65.1001 32.7242 66.3082 32.8253L66.6418 28.8392C65.6678 28.7577 64.773 28.5641 64.1132 28.2221C63.5119 27.9104 63.1807 27.5256 63.0466 26.9616L59.1551 27.8872ZM64.475 30.8323V33.6918H68.475V30.8323H64.475ZM64.475 33.6918C64.475 34.5356 64.6372 35.3254 64.9183 36.0462L68.645 34.593C68.5358 34.3131 68.475 34.0151 68.475 33.6918H64.475ZM64.799 35.0564C64.7777 35.217 64.7558 35.4266 64.7558 35.6633H68.7558C68.7558 35.6672 68.7556 35.6635 68.7567 35.6499C68.7578 35.6361 68.76 35.6149 68.7642 35.5828L64.799 35.0564ZM64.7558 35.6634L64.7571 56.4367L68.7571 56.4364L68.7558 35.6632L64.7558 35.6634ZM64.7571 56.4366C64.7571 58.917 66.7369 60.9995 69.2665 60.9995V56.9995C69.0248 56.9995 68.7571 56.7875 68.7571 56.4366H64.7571ZM69.2665 60.9995C71.7987 60.9995 73.775 58.9139 73.775 56.4352H69.775C69.775 56.7888 69.5064 56.9995 69.2665 56.9995V60.9995ZM73.775 56.4352V38.6082H69.775V56.4352H73.775ZM71.6681 40.6053C71.72 40.6081 71.9034 40.6205 72.0726 40.6205V36.6205C72.0437 36.6205 72.0272 36.6188 71.8819 36.6111L71.6681 40.6053ZM72.0726 40.6205C72.1385 40.6205 72.192 40.6176 72.2138 40.6164C72.2199 40.6161 72.2252 40.6158 72.2285 40.6156C72.2335 40.6153 72.2327 40.6153 72.2349 40.6152C72.2373 40.615 72.2313 40.6154 72.2223 40.6158L72.0409 36.6199C72.0222 36.6208 72.0065 36.6217 71.9991 36.6221C71.9971 36.6223 71.9953 36.6224 71.9939 36.6225C71.9924 36.6225 71.9917 36.6226 71.9908 36.6226C71.9892 36.6227 71.9896 36.6227 71.9907 36.6226C71.9928 36.6225 72.0021 36.622 72.0152 36.6215C72.0285 36.6211 72.0483 36.6205 72.0726 36.6205V40.6205ZM70.1316 38.6178L70.1308 56.4343L74.1308 56.4344L74.1316 38.618L70.1316 38.6178ZM70.1308 56.4344C70.1308 58.9146 72.109 60.9986 74.6401 60.9986V56.9986C74.3991 56.9986 74.1308 56.7873 74.1308 56.4344H70.1308ZM74.6401 60.9986C77.1719 60.9986 79.1495 58.9144 79.1495 56.4344H75.1495C75.1495 56.7875 74.8814 56.9986 74.6401 56.9986V60.9986ZM79.1495 56.4344L79.15 35.7901L75.15 35.79L75.1495 56.4343L79.1495 56.4344ZM78.9185 36.7241C79.3922 35.827 79.6698 34.8024 79.6698 33.6905H75.6698C75.6698 34.1223 75.565 34.5085 75.3815 34.856L78.9185 36.7241ZM79.6698 33.6905V26.2191H75.6698V33.6905H79.6698ZM75.8079 26.9493C76.4076 28.4782 76.9598 30.6878 77.4401 34.0405L81.3996 33.4733C80.8988 29.9769 80.2915 27.4258 79.5317 25.4888L75.8079 26.9493ZM77.4402 34.0413C77.7341 36.0873 79.4687 37.6127 81.5188 37.6127V33.6127C81.4945 33.6127 81.4158 33.5855 81.3995 33.4726L77.4402 34.0413ZM81.5188 37.6127C81.7241 37.6127 81.9311 37.5968 82.1375 37.5645L81.5202 33.6124C81.5181 33.6128 81.5175 33.6127 81.5188 33.6127V37.6127ZM82.1229 37.5667C84.4118 37.2266 85.9229 35.0787 85.6021 32.8439L81.6427 33.4123C81.6513 33.4721 81.6359 33.5223 81.6083 33.5602C81.5814 33.5971 81.5554 33.6072 81.5349 33.6102L82.1229 37.5667ZM66.6957 24.4769C66.245 24.4267 66.0455 24.3588 66.0118 24.3463L64.6312 28.1006C65.0187 28.243 65.5411 28.3731 66.2534 28.4523L66.6957 24.4769ZM67.1793 26.9641C67.1782 26.9669 67.2225 26.8675 67.3766 26.6547C67.5195 26.4572 67.7144 26.2199 67.9564 25.9529L64.9926 23.2666C64.4309 23.8864 63.7801 24.6893 63.4637 25.4828L67.1793 26.9641ZM64.4745 24.6097V26.4646H68.4745V24.6097H64.4745ZM76.4284 22.2002L72.3736 31.1964L76.0203 32.8401L80.0751 23.8438L76.4284 22.2002ZM72.3718 31.2005C72.5134 30.8843 72.8124 30.7135 73.1081 30.7135V34.7135C74.347 34.7135 75.5023 33.9962 76.0221 32.836L72.3718 31.2005ZM73.1081 30.7135C73.2241 30.7135 73.3332 30.741 73.4192 30.7814L71.7184 34.4018C72.1472 34.6033 72.6173 34.7135 73.1081 34.7135V30.7135ZM73.4201 30.7819L69.7474 29.0542L68.0447 32.6737L71.7175 34.4014L73.4201 30.7819ZM68.9525 32.8631C69.053 32.8603 69.1459 32.8559 69.2201 32.8521L69.0173 28.8573C68.9528 28.8605 68.895 28.8632 68.8396 28.8647L68.9525 32.8631ZM69.2016 32.853C69.8778 32.8249 70.4815 32.6259 70.9883 32.3473L69.0616 28.8419C69.0421 28.8527 69.0307 28.8564 69.0279 28.8572C69.0257 28.8578 69.0291 28.8567 69.0359 28.8564L69.2016 32.853ZM68.0297 30.7316C68.0823 31.4982 68.5187 32.3324 69.397 32.7472L71.1052 29.1303C71.7095 29.4157 71.9875 29.9797 72.0203 30.4577L68.0297 30.7316ZM69.3997 32.7485L71.7467 33.8526L73.4495 30.2331L71.1025 29.129L69.3997 32.7485ZM71.754 33.856C72.1427 34.037 72.5799 34.1432 73.0396 34.1432V30.1432C73.1986 30.1432 73.3352 30.1799 73.4422 30.2297L71.754 33.856ZM73.0396 34.1432C73.3649 34.1432 73.6779 34.0899 73.9707 33.9947L72.7347 30.1905C72.8217 30.1622 72.9253 30.1432 73.0396 30.1432V34.1432ZM73.9713 33.9945C74.7664 33.7359 75.4051 33.1613 75.7474 32.4037L72.1021 30.757C72.222 30.4914 72.4559 30.2812 72.7341 30.1907L73.9713 33.9945ZM75.7481 32.4021L79.4885 24.1025L75.8417 22.459L72.1013 30.7586L75.7481 32.4021ZM79.4896 24.1C79.8294 23.3433 79.8332 22.4965 79.5244 21.7439L75.8239 23.2624C75.7252 23.022 75.7214 22.727 75.8406 22.4615L79.4896 24.1ZM79.5254 21.7463C79.233 21.0311 78.6835 20.463 77.9964 20.1402L76.2958 23.7607C76.0902 23.6641 75.9163 23.4885 75.8229 23.26L79.5254 21.7463ZM77.9976 20.1407L72.6411 17.6205L70.9382 21.2399L76.2946 23.7601L77.9976 20.1407ZM72.6343 17.6173C71.1841 16.9417 69.3504 17.4938 68.6398 19.0737L72.2879 20.7143C72.0219 21.3058 71.3769 21.4443 70.945 21.2431L72.6343 17.6173ZM68.6405 19.0723L65.9166 25.1171L69.5634 26.7604L72.2873 20.7157L68.6405 19.0723ZM65.9153 25.12C65.387 26.2974 65.8738 27.7242 67.0888 28.2931L68.7849 24.6705C69.5976 25.051 69.9078 25.9928 69.5647 26.7575L65.9153 25.12ZM67.0808 28.2893C68.3201 28.8762 69.7548 28.3017 70.2931 27.0983L66.6418 25.4648C66.9967 24.6716 67.955 24.2774 68.7928 24.6742L67.0808 28.2893ZM70.2909 27.1031L73.0148 21.0575L69.3679 19.4144L66.644 25.46L70.2909 27.1031ZM73.0132 21.0611C72.7189 21.7109 72.1635 22.0054 71.7592 22.1013C71.3482 22.1987 70.94 22.1437 70.5963 21.9804L72.3128 18.3674C71.8644 18.1544 71.3434 18.089 70.8363 18.2092C70.3359 18.3278 69.7013 18.6782 69.3695 19.4107L73.0132 21.0611ZM70.6032 21.9837L75.9593 24.503L77.6618 20.8835L72.3058 18.3641L70.6032 21.9837ZM75.9558 24.5014C75.6056 24.3359 75.2735 24.0315 75.0892 23.5896L78.7808 22.0495C78.5517 21.5003 78.1309 21.1052 77.6653 20.8851L75.9558 24.5014ZM75.0653 23.5297C75.019 23.4077 74.8004 22.8107 75.114 22.1152L78.7603 23.7597C79.1145 22.9745 78.8734 22.2904 78.8047 22.1094L75.0653 23.5297ZM75.1138 22.1158L71.3734 30.4163L75.0202 32.0597L78.7606 23.7592L75.1138 22.1158ZM71.3767 30.409C71.6897 29.7218 72.2707 29.4832 72.4791 29.4143L73.7345 33.2122C74.0015 33.1239 74.6634 32.8431 75.0169 32.067L71.3767 30.409ZM72.4529 29.4231C72.9677 29.2451 73.4475 29.3319 73.7818 29.4886L72.0846 33.1106C72.5335 33.321 73.1364 33.4193 73.7606 33.2033L72.4529 29.4231ZM73.785 29.4901L71.4384 28.3855L69.7348 32.0046L72.0814 33.1092L73.785 29.4901ZM71.3579 28.3497C71.2206 28.2924 71.1033 28.2612 71.03 28.2442C70.9929 28.2356 70.9624 28.2297 70.9434 28.2261C70.9336 28.2243 70.9256 28.2228 70.9204 28.2219C70.9154 28.2211 70.9113 28.2203 70.9108 28.2203C70.9066 28.2195 70.9184 28.2215 70.932 28.224C70.9471 28.2268 70.9733 28.2319 71.0057 28.2392C71.0701 28.2538 71.1749 28.2809 71.2989 28.3305L69.814 32.0446C69.8791 32.0707 69.9388 32.0906 69.9905 32.106C70.042 32.1213 70.087 32.1325 70.1223 32.1405C70.1574 32.1484 70.1861 32.1539 70.2038 32.1572C70.2128 32.1589 70.2202 32.1602 70.2248 32.161C70.2272 32.1614 70.2291 32.1617 70.2304 32.162C70.231 32.1621 70.2315 32.1622 70.2319 32.1622C70.2322 32.1623 70.2326 32.1623 70.2326 32.1623C70.2334 32.1625 70.2305 32.162 70.2269 32.1613C70.2229 32.1607 70.2162 32.1594 70.2077 32.1579C70.1992 32.1563 70.188 32.1541 70.1749 32.1514C70.1618 32.1487 70.1462 32.1454 70.1286 32.1413C70.0936 32.1332 70.0483 32.1217 69.9961 32.1057C69.9435 32.0895 69.8824 32.0683 69.8154 32.0403L71.3579 28.3497ZM72.0137 31.5574C72.7505 30.7736 73.1974 29.6928 73.1487 28.5134L69.1521 28.6783C69.1543 28.7302 69.1369 28.7777 69.0993 28.8177L72.0137 31.5574ZM73.1488 28.5139C73.0561 26.2551 71.1607 24.4104 68.8434 24.5219L69.0357 28.5173C69.0406 28.5171 69.0614 28.5161 69.0941 28.5467C69.1271 28.5777 69.1498 28.6221 69.1521 28.6778L73.1488 28.5139ZM68.8529 24.5215C68.0755 24.5552 67.4889 24.5422 67.0502 24.51L66.7577 28.4993C67.3752 28.5446 68.1195 28.5571 69.0262 28.5177L68.8529 24.5215ZM68.7273 27.3264L72.0073 20.0486L68.3605 18.4051L65.0806 25.6829L68.7273 27.3264ZM72.0073 20.0486C71.867 20.36 71.5701 20.5316 71.2736 20.5316V16.5316C70.0339 16.5316 68.8816 17.2488 68.3605 18.4052L72.0073 20.0486ZM71.2736 20.5316C71.163 20.5316 71.0541 20.5059 70.9631 20.4631L72.6644 16.843C72.2288 16.6382 71.7573 16.5316 71.2736 16.5316V20.5316ZM70.9588 20.4611L71.1152 20.535L72.8251 16.9189L72.6687 16.845L70.9588 20.4611ZM73.9493 19.0147L74.0393 18.3955L70.0809 17.82L69.9909 18.4392L73.9493 19.0147ZM72.0601 20.1078H72.086V16.1078H72.0601V20.1078ZM70.1073 18.3989L70.2137 19.122L74.171 18.5397L74.0647 17.8166L70.1073 18.3989ZM71.341 20.6405L76.7672 23.1933L78.47 19.5739L73.0438 17.0211L71.341 20.6405ZM76.7648 23.1922C76.4547 23.0458 76.2318 22.6374 76.4276 22.202L80.0759 23.842C80.8204 22.1858 80.0299 20.3102 78.4723 19.575L76.7648 23.1922Z" fill="#33CE34" mask="url(#path-11-outside-1_28_473)"/>
</g>
<defs>
<clipPath id="clip0_28_473">
<rect width="122" height="62" fill="white"/>
</clipPath>
<clipPath id="clip1_28_473">
<rect width="59" height="59" fill="white" transform="translate(0 16)"/>
</clipPath>
</defs>
</svg>
