<svg width="93" height="62" viewBox="0 0 93 62" fill="none" xmlns="http://www.w3.org/2000/svg">
<g id="SVGRepo_iconCarrier">
<g id="Group">
<path id="Vector" d="M44.3904 6.02328L60.4324 1.30146C60.7695 4.14826 61.5876 7.4033 62.7902 10.4487C63.8282 13.0774 65.1774 15.6129 66.8014 17.6055H55.8266C55.2691 17.6055 54.7219 17.6328 54.1877 17.6751C54.0037 17.6296 53.8111 17.6055 53.6128 17.6055C51.2191 17.6055 48.9294 16.3085 47.2053 14.098C45.576 12.009 44.5012 9.15589 44.3904 6.02328Z" stroke="#33CE34" stroke-width="2"/>
<path id="Vector_2" d="M16 61C11.0731 61 7.36993 58.8494 4.86524 55.3577C2.33602 51.8319 1 46.8883 1 41.3346C1 35.7813 2.33628 30.8376 4.86566 27.3116C7.37053 23.8198 11.0737 21.6689 16 21.6689H61.3386C55.3384 25.9426 51.4013 33.171 51.4013 41.3346C51.4013 49.4989 55.3382 56.7267 61.3383 61H16Z" stroke="#33CE34" stroke-width="2"/>
<g id="Group_2">
<path id="Vector_3" d="M64.9662 53.4855C61.9586 50.3587 60.2593 45.927 60.2593 41.3346C60.2593 36.7409 61.9585 32.3105 64.9659 29.184L64.9662 53.4855ZM64.9662 53.4855C67.4397 56.0579 70.6129 57.5159 73.9118 57.5159M64.9662 53.4855L73.9118 57.5159M73.9118 57.5159C81.4856 57.5159 87.5644 49.9393 87.5644 41.3356C87.5644 32.733 81.4857 25.1537 73.9118 25.1537C70.6135 25.1537 67.44 26.6099 64.9663 29.1837L73.9118 57.5159ZM55.8219 41.3335C55.8219 30.4149 64.0116 21.6678 73.9118 21.6678C83.8126 21.6678 92 30.4147 92 41.3335C92 52.2521 83.8126 60.9989 73.9118 60.9989C64.0116 60.9989 55.8219 52.2519 55.8219 41.3335Z" stroke="#33CE34" stroke-width="2"/>
<path id="Vector_4" d="M67.7078 46.2674L67.7078 46.2673L67.7041 46.2779C67.6509 46.4295 67.5964 46.5779 67.5395 46.7231C67.4451 46.9582 67.3416 47.1913 67.2296 47.4293L67.2296 47.4293L67.2272 47.4344C67.1964 47.5009 67.1717 47.5556 67.1496 47.6046C67.1133 47.6852 67.084 47.7501 67.0463 47.8254C66.9143 48.0838 66.7701 48.3398 66.617 48.5972C65.3744 46.5044 64.6802 43.9726 64.6802 41.3345C64.6802 38.6961 65.3743 36.1647 66.6168 34.0718C66.77 34.3277 66.9142 34.5848 67.047 34.8461L67.0469 34.8461L67.05 34.852C67.0886 34.9267 67.1188 34.9938 67.1592 35.0833C67.1785 35.1262 67.2002 35.1741 67.2261 35.2305L67.2261 35.2306L67.2304 35.2396C67.3424 35.4766 67.4474 35.7128 67.5426 35.9499L67.543 35.9509C67.5962 36.0832 67.6449 36.2217 67.7027 36.3858L67.7044 36.3909L67.7047 36.3915C67.7919 36.6389 67.8716 36.8745 67.9411 37.1106L67.9411 37.1106L67.9424 37.1149C67.9919 37.2803 68.0371 37.4333 68.077 37.5849C68.14 37.8297 68.1964 38.0807 68.249 38.339L68.249 38.339L68.2513 38.3499C68.2862 38.5116 68.3179 38.6634 68.3445 38.8111C68.3903 39.0803 68.4254 39.357 68.457 39.6471L68.4578 39.6542L68.4586 39.6612C68.4664 39.7243 68.4733 39.7763 68.4794 39.8222C68.4911 39.9111 68.4998 39.977 68.5061 40.0554L68.506 40.0554L68.5069 40.0652C68.5448 40.4886 68.5655 40.9108 68.5655 41.3345C68.5655 41.7581 68.545 42.1813 68.507 42.603L68.5069 42.603L68.506 42.615C68.4999 42.6924 68.4914 42.7572 68.4797 42.8452C68.4736 42.8919 68.4665 42.945 68.4586 43.01L68.4585 43.01L68.457 43.0232C68.4253 43.3136 68.3902 43.5904 68.3444 43.8571C68.3234 43.9757 68.2993 44.091 68.2719 44.2224C68.2647 44.2566 68.2573 44.292 68.2497 44.3288L68.2492 44.331C68.1956 44.5927 68.1409 44.8402 68.0779 45.0795C68.037 45.2338 67.9913 45.3903 67.9416 45.5596C67.8705 45.798 67.7928 46.0334 67.7078 46.2674Z" stroke="#33CE34" stroke-width="2"/>
<path id="Vector_5" d="M72.1315 46.8476C72.0429 47.1322 71.9472 47.43 71.8367 47.7297C71.757 47.9478 71.6684 48.1576 71.5904 48.3423C71.5851 48.3549 71.5798 48.3674 71.5746 48.3797C71.4628 48.6484 71.3428 48.9282 71.2091 49.2071C71.1054 49.4239 70.9965 49.6321 70.8909 49.8299C70.7544 50.0906 70.6102 50.3509 70.4547 50.6089L70.4545 50.6093C70.3392 50.8005 70.2168 50.9998 70.0843 51.1998C69.9175 51.4556 69.744 51.6961 69.578 51.9221L69.578 51.9221C69.5756 51.9254 69.5733 51.9286 69.5709 51.9318C70.9466 52.9412 72.4473 53.4578 73.9096 53.4578C76.3031 53.4578 78.5929 52.1605 80.3171 49.9497C82.039 47.7417 83.1416 44.6804 83.1416 41.3382V41.3379C83.1425 37.9932 82.0404 34.931 80.3188 32.7228C78.5951 30.5118 76.3054 29.2147 73.9119 29.2147C72.4491 29.2147 70.9483 29.7308 69.5726 30.74C69.5746 30.7428 69.5766 30.7455 69.5786 30.7482C69.7529 30.9832 69.921 31.2228 70.0839 31.4683L70.0863 31.472L70.0863 31.472C70.215 31.6678 70.338 31.8654 70.4573 32.0653C70.6141 32.3239 70.7577 32.5844 70.8927 32.8416C70.9976 33.0376 71.1077 33.2476 71.2123 33.4692C71.3459 33.747 71.4653 34.0247 71.5769 34.2914L71.5776 34.2932C71.5833 34.3069 71.5891 34.3208 71.5949 34.3347C71.6725 34.5212 71.7579 34.7262 71.8366 34.9354L71.8389 34.9415L71.8389 34.9415C71.9498 35.2421 72.0443 35.5419 72.1315 35.8224C72.1448 35.8648 72.1596 35.9111 72.1752 35.9601C72.2248 36.1153 72.2833 36.2984 72.3315 36.476L72.3325 36.4797L72.3325 36.4797C72.4098 36.7694 72.4744 37.0627 72.5336 37.3318C72.5402 37.362 72.5468 37.3919 72.5533 37.4214L72.5553 37.4304L72.5552 37.4304C72.5645 37.4742 72.5766 37.5284 72.5901 37.5886C72.622 37.7308 72.6614 37.907 72.6887 38.0617C72.7497 38.3988 72.7905 38.7379 72.8274 39.0446C72.8313 39.0767 72.8351 39.1085 72.8389 39.1398C72.8424 39.1682 72.8484 39.2106 72.8555 39.261C72.8727 39.3835 72.8965 39.5533 72.9083 39.6833L72.9085 39.6863C72.9556 40.2267 72.9844 40.7781 72.9844 41.3366C72.9844 41.8925 72.9584 42.4445 72.9081 42.9918L72.9079 42.9946C72.8961 43.1186 72.8736 43.2809 72.8566 43.4027C72.8493 43.4557 72.843 43.501 72.8391 43.5321L72.8394 43.5295L71.8463 43.4119M72.1315 46.8476C72.1315 46.8477 72.1314 46.8479 72.1314 46.848L71.177 46.5495L72.1318 46.8468C72.1317 46.847 72.1316 46.8473 72.1315 46.8476ZM72.1315 46.8476C72.1455 46.803 72.1612 46.7537 72.1781 46.7012C72.2268 46.5491 72.2841 46.3699 72.331 46.1984L72.332 46.1948C72.4075 45.9142 72.4698 45.6296 72.5263 45.3714C72.5355 45.3295 72.5445 45.2884 72.5534 45.2481L72.5534 45.2481L72.5552 45.2397C72.5643 45.1967 72.5766 45.1419 72.5905 45.0804C72.6222 44.9398 72.6618 44.7641 72.6885 44.6138M72.6885 44.6138C72.7535 44.256 72.7961 43.8958 72.8343 43.5725L72.8388 43.5344L71.8463 43.4119M72.6885 44.6138C72.6886 44.6131 72.6888 44.6124 72.6889 44.6118L71.7043 44.437M72.6885 44.6138C72.6884 44.6145 72.6883 44.6152 72.6881 44.6159L71.7043 44.437M71.8463 43.4119L71.8424 43.4452C71.8032 43.7765 71.7637 44.1098 71.7043 44.437M71.8463 43.4119C71.8544 43.3468 71.8635 43.282 71.8726 43.2173C71.8874 43.1118 71.9023 43.0065 71.9123 42.9003L71.7043 44.437" stroke="#33CE34" stroke-width="2"/>
</g>
</g>
</g>
</svg>
