<svg width="41" height="40" viewBox="0 0 41 40" fill="none" xmlns="http://www.w3.org/2000/svg">
<g id="Frame">
<g id="SVGRepo_iconCarrier">
<path id="Vector" d="M37.1667 8.33317V14.9998L20.5 21.6665L3.83333 14.9998V8.33317C3.83333 7.89114 4.00893 7.46722 4.32149 7.15466C4.63405 6.8421 5.05797 6.6665 5.5 6.6665H35.5C35.942 6.6665 36.366 6.8421 36.6785 7.15466C36.9911 7.46722 37.1667 7.89114 37.1667 8.33317ZM3.83333 18.5898V31.6665C3.83333 32.1085 4.00893 32.5325 4.32149 32.845C4.63405 33.1576 5.05797 33.3332 5.5 33.3332H35.5C35.942 33.3332 36.366 33.1576 36.6785 32.845C36.9911 32.5325 37.1667 32.1085 37.1667 31.6665V18.5898L20.5 25.2565L3.83333 18.5898Z" fill="#33CE34"/>
</g>
</g>
</svg>
