<svg width="23" height="15" viewBox="0 0 23 15" fill="none" xmlns="http://www.w3.org/2000/svg">
<mask id="path-1-inside-1_67_383" fill="white">
<path d="M6.6317 0.928711H5.21177C5.00224 0.928711 4.81494 1.05935 4.74255 1.25598L0.269012 13.4082C0.148853 13.7346 0.390407 14.0809 0.738228 14.0809H1.9945C2.20186 14.0809 2.38771 13.9529 2.46164 13.7592L7.09885 1.60697C7.22375 1.27966 6.98203 0.928711 6.6317 0.928711Z"/>
</mask>
<path d="M7.09885 1.60697L13.6389 4.1026L13.6389 4.10259L7.09885 1.60697ZM2.46164 13.7592L9.00166 16.2548L9.00166 16.2548L2.46164 13.7592ZM0.269012 13.4082L-6.30002 10.99L-6.30002 10.99L0.269012 13.4082ZM4.74255 1.25598L-1.82648 -1.16225L-1.82648 -1.16225L4.74255 1.25598ZM5.21177 7.92871H6.6317V-6.07129H5.21177V7.92871ZM0.558831 -0.88866L-4.07838 11.2635L9.00166 16.2548L13.6389 4.1026L0.558831 -0.88866ZM1.9945 7.08092H0.738228V21.0809H1.9945V7.08092ZM6.83804 15.8264L11.3116 3.67421L-1.82648 -1.16225L-6.30002 10.99L6.83804 15.8264ZM0.738228 7.08092C5.2599 7.08092 8.40011 11.5831 6.83804 15.8264L-6.30002 10.99C-8.1024 15.8861 -4.47909 21.0809 0.738228 21.0809V7.08092ZM-4.07837 11.2635C-3.11728 8.74493 -0.701291 7.08092 1.9945 7.08092V21.0809C5.10502 21.0809 7.89271 19.1609 9.00166 16.2548L-4.07837 11.2635ZM6.6317 7.92871C2.07743 7.92871 -1.06485 3.36636 0.558829 -0.888654L13.6389 4.10259C15.5123 -0.807033 11.8866 -6.07129 6.6317 -6.07129V7.92871ZM5.21177 -6.07129C2.06884 -6.07129 -0.740724 -4.11166 -1.82648 -1.16225L11.3116 3.67421C10.3706 6.23036 7.93564 7.92871 5.21177 7.92871V-6.07129Z" fill="white" mask="url(#path-1-inside-1_67_383)"/>
<path d="M10.8422 10.3468L9.27781 10.3053L11.0301 5.39841L12.4743 5.91699L10.8422 10.3468Z" stroke="white" stroke-width="7" stroke-linecap="round"/>
<mask id="path-4-inside-2_67_383" fill="white">
<path d="M18.7468 2.64289L16.9343 1.99447C16.3986 1.80285 16.5479 1.00814 17.1165 1.02388L21.8076 1.15374C22.1514 1.16325 22.3832 1.509 22.2613 1.83064L17.791 13.6335C17.7174 13.8278 17.5312 13.9564 17.3234 13.9564H15.9152C15.5688 13.9564 15.3274 13.6128 15.4448 13.2869L19.0488 3.28314C19.1425 3.02293 19.0072 2.73605 18.7468 2.64289Z"/>
</mask>
<path d="M16.9343 1.99447L19.2922 -4.59646L16.9343 1.99447ZM18.7468 2.64289L16.3889 9.23382L16.3889 9.23382L18.7468 2.64289ZM19.0488 3.28314L12.4631 0.910547L12.4631 0.910556L19.0488 3.28314ZM15.4448 13.2869L22.0304 15.6595L22.0304 15.6595L15.4448 13.2869ZM17.791 13.6335L11.2448 11.1541L11.2448 11.1541L17.791 13.6335ZM22.2613 1.83064L15.7152 -0.648749L15.7151 -0.648744L22.2613 1.83064ZM21.8076 1.15374L21.6139 8.15106H21.6139L21.8076 1.15374ZM17.1165 1.02388L17.3102 -5.97344L17.1165 1.02388ZM14.5764 8.5854L16.3889 9.23382L21.1047 -3.94805L19.2922 -4.59646L14.5764 8.5854ZM12.4631 0.910556L8.8591 10.9143L22.0304 15.6595L25.6344 5.65572L12.4631 0.910556ZM15.9152 20.9564H17.3234V6.95637H15.9152V20.9564ZM24.3372 16.1129L28.8075 4.31003L15.7151 -0.648744L11.2448 11.1541L24.3372 16.1129ZM22.0013 -5.84358L17.3102 -5.97344L16.9228 8.0212L21.6139 8.15106L22.0013 -5.84358ZM28.8075 4.31004C30.6349 -0.514604 27.1584 -5.70083 22.0013 -5.84358L21.6139 8.15106C17.1444 8.02733 14.1314 3.53261 15.7152 -0.648749L28.8075 4.31004ZM17.3234 20.9564C20.4407 20.9564 23.233 19.0281 24.3372 16.1129L11.2448 11.1541C12.2017 8.62755 14.6217 6.95637 17.3234 6.95637V20.9564ZM8.8591 10.9143C7.09821 15.8021 10.7199 20.9564 15.9152 20.9564V6.95637C20.4177 6.95637 23.5565 11.4234 22.0304 15.6595L8.8591 10.9143ZM16.3889 9.23382C13.0035 8.0227 11.2444 4.29324 12.4631 0.910547L25.6344 5.65573C27.0406 1.75262 25.0109 -2.55061 21.1047 -3.94805L16.3889 9.23382ZM19.2922 -4.59646C26.2555 -2.10535 24.3156 8.22584 16.9228 8.0212L17.3102 -5.97344C8.7801 -6.20957 6.54177 5.71104 14.5764 8.5854L19.2922 -4.59646Z" fill="white" mask="url(#path-4-inside-2_67_383)"/>
</svg>
