<svg width="41" height="40" viewBox="0 0 41 40" fill="none" xmlns="http://www.w3.org/2000/svg">
<g id="Frame">
<g id="SVGRepo_iconCarrier">
<path id="Vector" d="M28.0937 21.5105L27.3345 22.2652C27.3345 22.2652 25.5302 24.0593 20.6052 19.1622C15.6802 14.2652 17.4845 12.4711 17.4845 12.4711L17.9625 11.9958C19.1402 10.8249 19.2512 8.94501 18.2237 7.57262L16.1221 4.76529C14.8505 3.06669 12.3933 2.84231 10.9358 4.29154L8.31977 6.89269C7.59707 7.61129 7.11277 8.54281 7.1715 9.57617C7.32175 12.2199 8.51787 17.908 15.1923 24.5445C22.2702 31.5822 28.9114 31.8618 31.6272 31.6087C32.4862 31.5287 33.2332 31.0912 33.8352 30.4925L36.2028 28.1385C37.801 26.5493 37.3504 23.825 35.3055 22.7135L32.1213 20.9825C30.7787 20.2527 29.143 20.467 28.0937 21.5105Z" fill="#33CE34"/>
</g>
</g>
</svg>
