<svg width="41" height="40" viewBox="0 0 41 40" fill="none" xmlns="http://www.w3.org/2000/svg">
<g id="Layer_1">
<g id="SVGRepo_iconCarrier">
<path id="Vector" d="M20.5 3C13.3208 3 7.5 8.70881 7.5 15.75C7.5 18.5226 8.42679 21.0667 9.96729 23.1503C9.99492 23.2003 9.99925 23.256 10.0307 23.3038L18.6973 36.0538C19.0993 36.6451 19.7763 37 20.5 37C21.2237 37 21.9008 36.6451 22.3027 36.0538L30.9693 23.3038C31.0013 23.256 31.0051 23.2003 31.0327 23.1503C32.5732 21.0667 33.5 18.5226 33.5 15.75C33.5 8.70881 27.6793 3 20.5 3ZM20.5 20C18.1069 20 16.1667 18.0971 16.1667 15.75C16.1667 13.4029 18.1069 11.5 20.5 11.5C22.8931 11.5 24.8333 13.4029 24.8333 15.75C24.8333 18.0971 22.8931 20 20.5 20Z" fill="#33CE34"/>
</g>
</g>
</svg>
