<svg width="25" height="29" viewBox="0 0 25 29" fill="none" xmlns="http://www.w3.org/2000/svg">
<g id="Group">
<path id="Vector" d="M15.2778 0.75H9.72222C4.375 0.75 0 5.07945 0 10.371V14.4943C0 18.2052 2.1875 21.6069 5.55556 23.1875V27.7919C5.55556 28.2042 6.07639 28.4103 6.35417 28.1011L10.3819 24.1153H15.2778C20.625 24.1153 25 19.7858 25 14.4943V10.371C25 5.07945 20.625 0.75 15.2778 0.75ZM18.9236 18.7894L17.5 20.1638C16.0069 21.6069 12.1528 19.9576 8.75 16.5216C5.34722 13.0855 3.85417 9.23709 5.27778 7.79394L6.66667 6.41951C7.1875 5.9041 8.05556 5.93846 8.64583 6.45387L10.6597 8.51551C11.3889 9.23709 11.0764 10.4741 10.1389 10.749C9.47917 10.9551 9.02778 11.6767 9.23611 12.3296C9.58333 13.8414 11.5278 15.7656 12.9861 16.1436C13.6458 16.281 14.375 15.9374 14.6181 15.2846C14.9306 14.3568 16.1806 14.0819 16.875 14.8035L18.8889 16.8652C19.4444 17.3462 19.4444 18.2052 18.9236 18.7894ZM13.75 7.27853C13.6111 7.27853 13.4722 7.27853 13.3333 7.31289C13.0903 7.34725 12.8472 7.14109 12.8125 6.90056C12.7778 6.66004 12.9861 6.41951 13.2292 6.38515C13.4028 6.35079 13.5764 6.35079 13.75 6.35079C16.2847 6.35079 18.3681 8.41243 18.3681 10.9208C18.3681 11.0926 18.3681 11.2644 18.3333 11.4362C18.2986 11.6767 18.0556 11.8829 17.8125 11.8485C17.5694 11.8141 17.3611 11.5736 17.3958 11.3331C17.3958 11.1956 17.4306 11.0582 17.4306 10.9208C17.4653 8.92784 15.7986 7.27853 13.75 7.27853ZM16.5278 10.9551C16.5278 11.1956 16.3194 11.4018 16.0764 11.4018C15.8333 11.4018 15.625 11.1956 15.625 10.9551C15.625 9.95866 14.7917 9.13401 13.7847 9.13401C13.5417 9.13401 13.3333 8.92784 13.3333 8.68732C13.3333 8.44679 13.5417 8.24063 13.7847 8.24063C15.2778 8.20627 16.5278 9.44325 16.5278 10.9551ZM20.0694 12.4326C20 12.6732 19.7569 12.845 19.4792 12.7762C19.2361 12.7075 19.0972 12.467 19.1667 12.2265C19.2708 11.8141 19.3056 11.4018 19.3056 10.9551C19.3056 7.93138 16.8056 5.45741 13.75 5.45741H13.3333C13.0903 5.45741 12.8472 5.28561 12.8472 5.04509C12.8472 4.80456 13.0208 4.56404 13.2639 4.56404C13.4375 4.56404 13.6111 4.52968 13.75 4.52968C17.3264 4.52968 20.2431 7.41597 20.2431 10.9551C20.2431 11.4362 20.1736 11.9516 20.0694 12.4326Z" fill="#353535"/>
</g>
</svg>
