<svg width="28" height="16" viewBox="0 0 28 16" fill="none" xmlns="http://www.w3.org/2000/svg">
<g id="Group 5094">
<path id="Vector" fill-rule="evenodd" clip-rule="evenodd" d="M26.9493 1.15541C27.137 0.537899 26.9493 0.083252 26.0501 0.083252H23.0814C22.3259 0.083252 21.9775 0.475697 21.7887 0.908856C21.7887 0.908856 20.2788 4.52342 18.1402 6.8713C17.448 7.55214 17.1336 7.76815 16.7559 7.76815C16.567 7.76815 16.2831 7.55214 16.2831 6.9335V1.15541C16.2831 0.413493 16.075 0.083252 15.4462 0.083252H10.7776C10.306 0.083252 10.0221 0.427065 10.0221 0.753914C10.0221 1.45624 11.092 1.6191 11.2017 3.59603V7.89143C11.2017 8.83352 11.0287 9.0043 10.6509 9.0043C9.64439 9.0043 7.19585 5.37277 5.74256 1.21761C5.46095 0.408969 5.17595 0.083252 4.41707 0.083252H1.44603C0.597806 0.083252 0.428162 0.475697 0.428162 0.908856C0.428162 1.68017 1.43472 5.51188 5.11601 10.5797C7.5702 14.0405 11.0253 15.9167 14.1728 15.9167C16.0603 15.9167 16.2933 15.5006 16.2933 14.7824V12.1665C16.2933 11.333 16.472 11.1667 17.0703 11.1667C17.5114 11.1667 18.2657 11.3838 20.0278 13.052C22.0409 15.0301 22.3723 15.9167 23.5055 15.9167H26.4743C27.3225 15.9167 27.7477 15.5006 27.5034 14.6772C27.2343 13.8584 26.2729 12.6698 24.9984 11.2594C24.3062 10.4565 23.268 9.59127 22.9524 9.15811C22.5125 8.6028 22.638 8.35512 22.9524 7.86089C22.9524 7.86089 26.5715 2.85524 26.9481 1.15541H26.9493Z" fill="white"/>
</g>
</svg>
