<svg width="26" height="26" viewBox="0 0 26 26" fill="none" xmlns="http://www.w3.org/2000/svg">
<g id="Group">
<path id="Vector" d="M13.0031 0.5H12.9969C6.10469 0.5 0.5 6.10625 0.5 13C0.5 15.7344 1.38125 18.2687 2.87969 20.3266L1.32188 24.9703L6.12656 23.4344C8.10313 24.7438 10.4609 25.5 13.0031 25.5C19.8953 25.5 25.5 19.8922 25.5 13C25.5 6.10781 19.8953 0.5 13.0031 0.5ZM20.2766 18.1516C19.975 19.0031 18.7781 19.7094 17.8234 19.9156C17.1703 20.0547 16.3172 20.1656 13.4453 18.975C9.77187 17.4531 7.40625 13.7203 7.22188 13.4781C7.04531 13.2359 5.7375 11.5016 5.7375 9.70781C5.7375 7.91406 6.64844 7.04063 7.01562 6.66563C7.31719 6.35781 7.81562 6.21719 8.29375 6.21719C8.44844 6.21719 8.5875 6.225 8.7125 6.23125C9.07969 6.24687 9.26406 6.26875 9.50625 6.84844C9.80781 7.575 10.5422 9.36875 10.6297 9.55313C10.7188 9.7375 10.8078 9.9875 10.6828 10.2297C10.5656 10.4797 10.4625 10.5906 10.2781 10.8031C10.0938 11.0156 9.91875 11.1781 9.73438 11.4062C9.56563 11.6047 9.375 11.8172 9.5875 12.1844C9.8 12.5437 10.5344 13.7422 11.6156 14.7047C13.0109 15.9469 14.1422 16.3438 14.5469 16.5125C14.8484 16.6375 15.2078 16.6078 15.4281 16.3734C15.7078 16.0719 16.0531 15.5719 16.4047 15.0797C16.6547 14.7266 16.9703 14.6828 17.3016 14.8078C17.6391 14.925 19.425 15.8078 19.7922 15.9906C20.1594 16.175 20.4016 16.2625 20.4906 16.4172C20.5781 16.5719 20.5781 17.2984 20.2766 18.1516Z" fill="white"/>
</g>
</svg>
