<svg xmlns="http://www.w3.org/2000/svg" width="149" height="85" viewBox="0 0 149 85" fill="none">
  <mask id="path-1-inside-1_28_3115" fill="white">
    <path d="M44.2859 0.0587826H32.5383C31.7002 0.0587826 30.9509 0.581347 30.6614 1.36786L0.990598 81.9675C0.509963 83.2731 1.47618 84.6584 2.86746 84.6584H13.5295C14.359 84.6584 15.1024 84.1464 15.3981 83.3715L46.1544 2.77182C46.654 1.46259 45.6872 0.0587826 44.2859 0.0587826Z"/>
  </mask>
  <path d="M46.1544 2.77182L8.7829 -11.4889L8.7829 -11.4889L46.1544 2.77182ZM15.3981 83.3715L52.7696 97.6322L52.7696 97.6322L15.3981 83.3715ZM0.990598 81.9675L38.5279 95.786L38.5279 95.786L0.990598 81.9675ZM30.6614 1.36786L-6.87591 -12.4506L-6.87592 -12.4506L30.6614 1.36786ZM32.5383 40.0588H44.2859V-39.9412H32.5383V40.0588ZM8.7829 -11.4889L-21.9734 69.1107L52.7696 97.6322L83.526 17.0326L8.7829 -11.4889ZM13.5295 44.6584H2.86746V124.658H13.5295V44.6584ZM38.5279 95.786L68.1987 15.1863L-6.87592 -12.4506L-36.5467 68.1491L38.5279 95.786ZM2.86746 44.6584C29.302 44.6584 47.66 70.9791 38.5279 95.786L-36.5467 68.149C-46.64 95.5671 -26.3496 124.658 2.86746 124.658V44.6584ZM-21.9734 69.1107C-16.3547 54.3865 -2.23044 44.6584 13.5295 44.6584V124.658C30.9484 124.658 46.5595 113.906 52.7696 97.6322L-21.9734 69.1107ZM44.2859 40.0588C17.6609 40.0588 -0.709435 13.3865 8.7829 -11.4889L83.526 17.0326C94.0175 -10.4614 73.7134 -39.9412 44.2859 -39.9412V40.0588ZM32.5383 -39.9412C14.9379 -39.9412 -0.795679 -28.9673 -6.87591 -12.4506L68.1987 15.1863C62.6976 30.13 48.4624 40.0588 32.5383 40.0588V-39.9412Z" fill="white" fill-opacity="0.3" mask="url(#path-1-inside-1_28_3115)"/>
  <path d="M57.8141 62.7937L71.0981 25.5941L85.1422 30.637L73.1451 63.2005L57.8141 62.7937Z" stroke="white" stroke-opacity="0.3" stroke-width="40" stroke-linecap="round"/>
  <mask id="path-4-inside-2_28_3115" fill="white">
    <path d="M125.894 11.4969L105.898 4.34342C103.755 3.57692 104.352 0.398095 106.627 0.461062L146.144 1.55496C147.519 1.59303 148.446 2.97602 147.959 4.26259L118.301 82.5671C118.006 83.3445 117.262 83.8587 116.431 83.8587H104.802C103.416 83.8587 102.45 82.4842 102.92 81.1808L127.102 14.0579C127.477 13.0171 126.936 11.8696 125.894 11.4969Z"/>
  </mask>
  <path d="M105.898 4.34342L119.372 -33.319H119.372L105.898 4.34342ZM125.894 11.4969L112.42 49.1594L112.42 49.1594L125.894 11.4969ZM127.102 14.0579L164.734 27.6155V27.6155L127.102 14.0579ZM102.92 81.1808L140.552 94.7384L140.552 94.7384L102.92 81.1808ZM118.301 82.5671L155.708 96.7351L155.708 96.735L118.301 82.5671ZM147.959 4.26259L185.366 18.4305L185.366 18.4305L147.959 4.26259ZM146.144 1.55496L145.037 41.5396H145.037L146.144 1.55496ZM106.627 0.461062L105.52 40.4457L106.627 0.461062ZM92.4244 42.0059L112.42 49.1594L139.368 -26.1655L119.372 -33.319L92.4244 42.0059ZM89.4697 0.500338L65.2877 67.6232L140.552 94.7384L164.734 27.6155L89.4697 0.500338ZM104.802 123.859H116.431V43.8587H104.802V123.859ZM155.708 96.735L185.366 18.4305L110.552 -9.90535L80.8941 68.3992L155.708 96.735ZM147.251 -38.4297L107.734 -39.5236L105.52 40.4457L145.037 41.5396L147.251 -38.4297ZM185.366 18.4305C195.599 -8.58752 176.131 -37.6303 147.251 -38.4297L145.037 41.5396C118.908 40.8163 101.294 14.5396 110.552 -9.90528L185.366 18.4305ZM116.431 123.859C133.888 123.859 149.525 113.06 155.708 96.7351L80.8941 68.3991C86.4885 53.6287 100.636 43.8587 116.431 43.8587V123.859ZM65.2877 67.6232C55.4267 94.9946 75.7081 123.859 104.802 123.859V43.8587C131.124 43.8587 149.474 69.9738 140.552 94.7384L65.2877 67.6232ZM112.42 49.1594C92.629 42.0791 82.3451 20.2762 89.4697 0.500339L164.734 27.6155C172.609 5.75804 161.242 -18.3399 139.368 -26.1655L112.42 49.1594ZM119.372 -33.319C160.08 -18.7556 148.74 41.6421 105.52 40.4457L107.734 -39.5236C59.9651 -40.8459 47.4305 25.9095 92.4244 42.0059L119.372 -33.319Z" fill="white" fill-opacity="0.3" mask="url(#path-4-inside-2_28_3115)"/>
</svg>